<svg xmlns="http://www.w3.org/2000/svg" width="90" height="90" viewBox="0 0 90 90"><defs><clipPath id="at87a"><path fill="#fff" d="M0 90V0h90v90zm1-45c0 24.3 19.7 44 44 44s44-19.7 44-44S69.3 1 45 1 1 20.7 1 45z"/></clipPath></defs><g><g opacity="1"><path fill="#fff" d="M45 1c24.3 0 44 19.7 44 44S69.3 89 45 89 1 69.3 1 45 20.7 1 45 1z"/><path fill="none" stroke="#e0e0e0" stroke-linecap="round" stroke-linejoin="round" stroke-miterlimit="20" stroke-width="2" d="M45 1c24.3 0 44 19.7 44 44S69.3 89 45 89 1 69.3 1 45 20.7 1 45 1z" clip-path="url(&quot;#at87a&quot;)"/></g><g opacity="1"><path fill="#008ed6" d="M59 33.988H31v17.006h28zm0-2c1.1 0 2 .9 2 2v17.006c0 1.099-.9 2-2 2H46V56h5a1 1 0 1 1 0 2H39a1 1 0 1 1 0-2h5v-3.007H31c-1.1 0-2-.9-2-2V33.989c0-1.1.9-2 2-2z"/></g></g></svg>