<svg xmlns="http://www.w3.org/2000/svg" width="90" height="90" viewBox="0 0 90 90"><defs><clipPath id="7b58a"><path fill="#fff" d="M0 90V0h90v90zm1-45c0 24.3 19.7 44 44 44s44-19.7 44-44S69.3 1 45 1 1 20.7 1 45z"/></clipPath></defs><g><g opacity="1"><path fill="#fff" d="M45 1c24.3 0 44 19.7 44 44S69.3 89 45 89 1 69.3 1 45 20.7 1 45 1z"/><path fill="none" stroke="#e0e0e0" stroke-linecap="round" stroke-linejoin="round" stroke-miterlimit="20" stroke-width="2" d="M45 1c24.3 0 44 19.7 44 44S69.3 89 45 89 1 69.3 1 45 20.7 1 45 1z" clip-path="url(&quot;#7b58a&quot;)"/></g><g opacity="1"><path fill="#008ed6" d="M51.003 31H38.994a1 1 0 0 0-1 1v26a1 1 0 0 0 1 1h12.009a1 1 0 0 0 1-1V32a1 1 0 0 0-1-1zm0-2a3 3 0 0 1 3 3v26a3 3 0 0 1-3 3H38.994a3 3 0 0 1-3-3V32a3 3 0 0 1 3-3zM45 54.005a1.995 1.995 0 1 1 0 3.99 1.995 1.995 0 0 1 0-3.99zM43 32h4a1 1 0 0 1 0 2h-4a1 1 0 1 1 0-2z"/></g></g></svg>